<svg width="239" height="281" viewBox="0 0 239 281" fill="none" xmlns="http://www.w3.org/2000/svg">
<rect width="238.677" height="280.374" fill="white"/>
<path d="M209.494 48.8622C186.431 15.8533 140.879 6.06932 107.946 27.0522L50.1175 63.9175C42.3013 68.8318 35.5967 75.3233 30.4325 82.9768C25.2684 90.6303 21.7583 99.2772 20.1268 108.365C17.3684 123.67 19.7938 139.458 27.019 153.229C22.0673 160.739 18.6899 169.176 17.0909 178.028C15.4437 187.298 15.6638 196.803 17.7384 205.986C19.813 215.17 23.7003 223.846 29.1723 231.508C52.2353 264.521 97.7891 274.307 130.718 253.318L188.56 216.452C196.374 211.537 203.076 205.045 208.238 197.392C213.4 189.738 216.908 181.092 218.537 172.005C221.3 156.701 218.881 140.913 211.663 127.139C216.611 119.628 219.986 111.193 221.584 102.342C223.233 93.0724 223.014 83.5669 220.94 74.3833C218.866 65.1996 214.978 56.5229 209.505 48.8622" fill="#FF3E00" fill-opacity="0.2"/>
<path d="M196.852 62.1676C177.084 33.8743 138.039 25.488 109.811 43.4733L60.2436 75.0721C53.544 79.2844 47.7972 84.8486 43.3707 91.4087C38.9443 97.9688 35.9357 105.38 34.5372 113.17C32.1729 126.288 34.2518 139.821 40.4449 151.625C36.2006 158.062 33.3056 165.293 31.935 172.881C30.5231 180.827 30.7118 188.974 32.4901 196.845C34.2683 204.717 37.6003 212.154 42.2906 218.721C62.0588 247.018 101.105 255.406 129.33 237.415L178.908 205.816C185.606 201.603 191.351 196.039 195.776 189.479C200.2 182.919 203.207 175.507 204.603 167.719C206.971 154.601 204.898 141.069 198.711 129.262C202.952 122.824 205.845 115.594 207.215 108.007C208.629 100.062 208.441 91.9145 206.663 84.0428C204.885 76.1711 201.553 68.7339 196.861 62.1676" fill="#FF3E00" fill-opacity="0.5"/>
<path d="M184.21 74.4731C167.737 50.8952 135.2 43.9066 111.676 58.8944L70.3697 85.2269C64.7867 88.7371 59.9977 93.3739 56.309 98.8407C52.6203 104.307 50.1131 110.484 48.9477 116.975C46.9774 127.907 48.7099 139.184 53.8708 149.021C50.3338 154.385 47.9214 160.411 46.7792 166.735C45.6026 173.356 45.7599 180.145 47.2417 186.705C48.7236 193.264 51.5002 199.462 55.4088 204.934C71.8824 228.516 104.421 235.506 127.942 220.513L169.257 194.181C174.839 190.67 179.626 186.033 183.313 180.566C187.001 175.099 189.506 168.923 190.67 162.433C192.643 151.501 190.915 140.224 185.759 130.385C189.294 125.02 191.705 118.995 192.846 112.673C194.024 106.052 193.868 99.2622 192.386 92.7024C190.905 86.1427 188.128 79.945 184.218 74.4731" fill="#FF3E00"/>
<path d="M106.881 207.955C100.379 209.645 93.5154 209.3 87.2165 206.965C80.9175 204.63 75.4867 200.418 71.6575 194.898C69.3074 191.608 67.6378 187.882 66.7468 183.938C65.8557 179.994 65.761 175.912 66.4683 171.93C66.7077 170.624 67.0375 169.335 67.4552 168.073L68.2329 165.697L70.3507 167.251C75.2372 170.844 80.7013 173.576 86.5075 175.33L88.0424 175.795L87.9014 177.329C87.715 179.508 88.3059 181.682 89.5694 183.467C90.7224 185.131 92.3585 186.4 94.2565 187.104C96.1546 187.808 98.223 187.913 100.182 187.403C101.079 187.165 101.933 186.791 102.717 186.294L144.03 159.959C145.042 159.322 145.909 158.482 146.577 157.492C147.246 156.501 147.701 155.383 147.913 154.207C148.125 153.007 148.096 151.777 147.827 150.588C147.558 149.399 147.055 148.276 146.348 147.283C145.195 145.62 143.559 144.35 141.661 143.645C139.763 142.941 137.695 142.836 135.735 143.344C134.839 143.583 133.984 143.956 133.201 144.453L117.435 154.503C114.841 156.152 112.01 157.394 109.04 158.188C102.538 159.878 95.6743 159.532 89.3753 157.197C83.0763 154.862 77.6456 150.651 73.8165 145.131C71.4657 141.841 69.7956 138.114 68.9043 134.17C68.0129 130.226 67.9182 126.144 68.6258 122.163C69.3278 118.26 70.8369 114.546 73.0562 111.259C75.2756 107.972 78.1566 105.185 81.5148 103.076L122.833 76.7447C125.427 75.0941 128.258 73.85 131.229 73.0556C137.73 71.3656 144.594 71.7114 150.893 74.0463C157.192 76.3813 162.623 80.5929 166.452 86.1125C168.802 89.4027 170.472 93.129 171.364 97.073C172.255 101.017 172.35 105.099 171.643 109.081C171.401 110.387 171.071 111.676 170.654 112.938L169.877 115.314L167.76 113.763C162.874 110.169 157.41 107.437 151.604 105.684L150.067 105.219L150.21 103.685C150.396 101.505 149.805 99.3298 148.543 97.5426C147.39 95.8789 145.754 94.6092 143.856 93.9052C141.958 93.2013 139.89 93.097 137.93 93.6064C137.034 93.8448 136.179 94.2187 135.396 94.7152L94.0711 121.052C93.0602 121.688 92.1931 122.528 91.5251 123.518C90.8572 124.508 90.4031 125.627 90.1919 126.802C89.979 128.002 90.0074 129.233 90.2756 130.422C90.5438 131.611 91.0463 132.735 91.7537 133.728C92.9071 135.391 94.5431 136.661 96.4409 137.365C98.3387 138.07 100.407 138.175 102.367 137.667C103.263 137.428 104.117 137.054 104.901 136.558L120.665 126.512C123.258 124.861 126.09 123.618 129.06 122.825C135.562 121.135 142.425 121.48 148.724 123.815C155.023 126.15 160.453 130.362 164.282 135.882C166.633 139.172 168.303 142.898 169.194 146.842C170.086 150.786 170.18 154.869 169.473 158.85C168.772 162.753 167.265 166.467 165.047 169.755C162.83 173.042 159.951 175.831 156.595 177.943L115.276 204.266C112.682 205.917 109.851 207.161 106.881 207.955Z" fill="white"/>
</svg>
